<?xml version="1.0" encoding="UTF-8"?>
<!-- mixer-panel-background.svg -->
<svg viewBox="0 0 1600 600" xmlns="http://www.w3.org/2000/svg" role="img" aria-label="DJ mixer panel background">
  <defs>
    <linearGradient id="gBase" x1="0" y1="0" x2="0" y2="1">
      <stop offset="0%" stop-color="#1a1a1a"/>
      <stop offset="55%" stop-color="#121213"/>
      <stop offset="100%" stop-color="#0f0f10"/>
    </linearGradient>

    <linearGradient id="gDeck" x1="0" y1="0" x2="0" y2="1">
      <stop offset="0%" stop-color="#242424"/>
      <stop offset="100%" stop-color="#151517"/>
    </linearGradient>

    <linearGradient id="gMixer" x1="0" y1="0" x2="0" y2="1">
      <stop offset="0%" stop-color="#222223"/>
      <stop offset="100%" stop-color="#141416"/>
    </linearGradient>

    <pattern id="pBrush" width="8" height="8" patternUnits="userSpaceOnUse">
      <rect width="8" height="8" fill="transparent"/>
      <rect x="0" y="1" width="8" height="1" fill="#ffffff" opacity="0.018"/>
      <rect x="0" y="5" width="8" height="1" fill="#000000" opacity="0.03"/>
    </pattern>

    <filter id="fGrain" x="-10%" y="-10%" width="120%" height="120%">
      <feTurbulence type="fractalNoise" baseFrequency="0.9" numOctaves="2" seed="7" result="n"/>
      <feColorMatrix in="n" type="matrix"
        values="
          0 0 0 0 0
          0 0 0 0 0
          0 0 0 0 0
          0 0 0 0.10 0" result="a"/>
      <feComposite in="a" in2="SourceGraphic" operator="over"/>
    </filter>

    <filter id="fInset" x="-10%" y="-10%" width="120%" height="120%">
      <feDropShadow dx="0" dy="6" stdDeviation="10" flood-color="#000000" flood-opacity="0.55"/>
    </filter>

    <linearGradient id="gBevel" x1="0" y1="0" x2="0" y2="1">
      <stop offset="0%" stop-color="#ffffff" stop-opacity="0.06"/>
      <stop offset="35%" stop-color="#ffffff" stop-opacity="0.02"/>
      <stop offset="100%" stop-color="#000000" stop-opacity="0.35"/>
    </linearGradient>

    <radialGradient id="gRecess" cx="50%" cy="45%" r="60%">
      <stop offset="0%" stop-color="#0b0b0c"/>
      <stop offset="55%" stop-color="#141416"/>
      <stop offset="100%" stop-color="#000000"/>
    </radialGradient>

    <radialGradient id="gScrew" cx="35%" cy="35%" r="70%">
      <stop offset="0%" stop-color="#b9b9b9" stop-opacity="0.9"/>
      <stop offset="35%" stop-color="#6f6f6f" stop-opacity="0.9"/>
      <stop offset="100%" stop-color="#1b1b1b" stop-opacity="0.95"/>
    </radialGradient>

    <radialGradient id="gGlint" cx="50%" cy="30%" r="70%">
      <stop offset="0%" stop-color="#00ff9f" stop-opacity="0.08"/>
      <stop offset="60%" stop-color="#00ff9f" stop-opacity="0.02"/>
      <stop offset="100%" stop-color="#00ff9f" stop-opacity="0"/>
    </radialGradient>

    <style>
      .label {
        font-family: ui-sans-serif, system-ui, -apple-system, Segoe UI, Roboto, Helvetica, Arial, "Apple Color Emoji","Segoe UI Emoji";
        font-size: 12px;
        letter-spacing: 0.14em;
        font-weight: 700;
        fill: #9ca3af;
      }
      .micro {
        font-family: ui-sans-serif, system-ui, -apple-system, Segoe UI, Roboto, Helvetica, Arial;
        font-size: 10px;
        letter-spacing: 0.10em;
        font-weight: 700;
        fill: #6b7280;
      }
      .stroke-sep { stroke: #3a3a3a; stroke-width: 2; }
      .stroke-hi  { stroke: #5a5a5a; stroke-width: 1; opacity: 0.35; }
    </style>
  </defs>

  <g filter="url(#fGrain)">
    <rect x="18" y="18" width="1564" height="564" rx="26" fill="url(#gBase)"/>
    <rect x="18" y="18" width="1564" height="564" rx="26" fill="url(#pBrush)" opacity="0.65"/>
    <rect x="18" y="18" width="1564" height="564" rx="26" fill="url(#gBevel)" opacity="0.55"/>
    <rect x="18" y="18" width="1564" height="564" rx="26" fill="url(#gGlint)"/>
  </g>

  <g filter="url(#fInset)">
    <rect x="48" y="52" width="1504" height="496" rx="18" fill="#0f0f10" opacity="0.35"/>
  </g>

  <g>
    <rect x="72" y="78" width="568" height="444" rx="16" fill="url(#gDeck)"/>
    <rect x="72" y="78" width="568" height="444" rx="16" fill="url(#pBrush)" opacity="0.5"/>
    <rect x="72" y="78" width="568" height="444" rx="16" fill="url(#gBevel)" opacity="0.45"/>
  </g>

  <g>
    <rect x="664" y="78" width="272" height="444" rx="16" fill="url(#gMixer)"/>
    <rect x="664" y="78" width="272" height="444" rx="16" fill="url(#pBrush)" opacity="0.45"/>
    <rect x="664" y="78" width="272" height="444" rx="16" fill="url(#gBevel)" opacity="0.45"/>
  </g>

  <g>
    <rect x="960" y="78" width="568" height="444" rx="16" fill="url(#gDeck)"/>
    <rect x="960" y="78" width="568" height="444" rx="16" fill="url(#pBrush)" opacity="0.5"/>
    <rect x="960" y="78" width="568" height="444" rx="16" fill="url(#gBevel)" opacity="0.45"/>
  </g>

  <line x1="652" y1="90" x2="652" y2="510" class="stroke-sep" opacity="0.9"/>
  <line x1="948" y1="90" x2="948" y2="510" class="stroke-sep" opacity="0.9"/>
  <line x1="655" y1="90" x2="655" y2="510" class="stroke-hi"/>
  <line x1="951" y1="90" x2="951" y2="510" class="stroke-hi"/>

  <text x="96"  y="110" class="label">DECK A</text>
  <text x="772" y="110" class="label">MIXER</text>
  <text x="984" y="110" class="label">DECK B</text>

  <g opacity="0.95">
    <rect x="710" y="124" width="180" height="34" rx="10" fill="#0b0b0c" opacity="0.55" stroke="#3a3a3a" stroke-width="1"/>
    <text x="736" y="146" class="micro">VIRTUAL DJ ROOMS</text>
  </g>

  <g opacity="0.10">
    <path d="M92 196 H620 M92 240 H620 M92 284 H620 M92 328 H620 M92 372 H620 M92 416 H620 M92 460 H620"
          stroke="#5a5a5a" stroke-width="1"/>
    <path d="M980 196 H1508 M980 240 H1508 M980 284 H1508 M980 328 H1508 M980 372 H1508 M980 416 H1508 M980 460 H1508"
          stroke="#5a5a5a" stroke-width="1"/>
  </g>

  <g opacity="0.65">
    <rect x="96" y="488" width="120" height="18" rx="8" fill="#0b0b0c" opacity="0.6" stroke="#3a3a3a" stroke-width="1"/>
    <g opacity="0.65">
      <rect x="104" y="493" width="8" height="8" rx="3" fill="#000000"/>
      <rect x="118" y="493" width="8" height="8" rx="3" fill="#000000"/>
      <rect x="132" y="493" width="8" height="8" rx="3" fill="#000000"/>
      <rect x="146" y="493" width="8" height="8" rx="3" fill="#000000"/>
      <rect x="160" y="493" width="8" height="8" rx="3" fill="#000000"/>
      <rect x="174" y="493" width="8" height="8" rx="3" fill="#000000"/>
      <rect x="188" y="493" width="8" height="8" rx="3" fill="#000000"/>
      <rect x="202" y="493" width="8" height="8" rx="3" fill="#000000"/>
    </g>

    <rect x="1384" y="488" width="120" height="18" rx="8" fill="#0b0b0c" opacity="0.6" stroke="#3a3a3a" stroke-width="1"/>
    <g opacity="0.65">
      <rect x="1392" y="493" width="8" height="8" rx="3" fill="#000000"/>
      <rect x="1406" y="493" width="8" height="8" rx="3" fill="#000000"/>
      <rect x="1420" y="493" width="8" height="8" rx="3" fill="#000000"/>
      <rect x="1434" y="493" width="8" height="8" rx="3" fill="#000000"/>
      <rect x="1448" y="493" width="8" height="8" rx="3" fill="#000000"/>
      <rect x="1462" y="493" width="8" height="8" rx="3" fill="#000000"/>
      <rect x="1476" y="493" width="8" height="8" rx="3" fill="#000000"/>
      <rect x="1490" y="493" width="8" height="8" rx="3" fill="#000000"/>
    </g>
  </g>

  <g opacity="0.9">
    <circle cx="560" cy="110" r="10" fill="url(#gRecess)" stroke="#3a3a3a" stroke-width="1"/>
    <circle cx="590" cy="110" r="10" fill="url(#gRecess)" stroke="#3a3a3a" stroke-width="1"/>
    <circle cx="620" cy="110" r="10" fill="url(#gRecess)" stroke="#3a3a3a" stroke-width="1"/>
  </g>

  <g opacity="0.9">
    <circle cx="684" cy="110" r="10" fill="url(#gRecess)" stroke="#3a3a3a" stroke-width="1"/>
    <circle cx="714" cy="110" r="10" fill="url(#gRecess)" stroke="#3a3a3a" stroke-width="1"/>
    <circle cx="744" cy="110" r="10" fill="url(#gRecess)" stroke="#3a3a3a" stroke-width="1"/>
    <circle cx="914" cy="110" r="10" fill="url(#gRecess)" stroke="#3a3a3a" stroke-width="1"/>
  </g>

  <g opacity="0.9">
    <circle cx="980" cy="110" r="10" fill="url(#gRecess)" stroke="#3a3a3a" stroke-width="1"/>
    <circle cx="1010" cy="110" r="10" fill="url(#gRecess)" stroke="#3a3a3a" stroke-width="1"/>
    <circle cx="1040" cy="110" r="10" fill="url(#gRecess)" stroke="#3a3a3a" stroke-width="1"/>
  </g>

  <g opacity="0.85">
    <rect x="110" y="138" width="492" height="92" rx="14" fill="#0b0b0c" opacity="0.55" stroke="#3a3a3a" stroke-width="1"/>

    <circle cx="290" cy="350" r="150" fill="#0b0b0c" opacity="0.55" stroke="#3a3a3a" stroke-width="2"/>
    <circle cx="290" cy="350" r="142" fill="none" stroke="#5a5a5a" stroke-width="1" opacity="0.35"/>

    <rect x="430" y="312" width="160" height="132" rx="16" fill="#0b0b0c" opacity="0.48" stroke="#3a3a3a" stroke-width="1"/>
  </g>

  <g opacity="0.85">
    <rect x="998" y="138" width="492" height="92" rx="14" fill="#0b0b0c" opacity="0.55" stroke="#3a3a3a" stroke-width="1"/>

    <circle cx="1310" cy="350" r="150" fill="#0b0b0c" opacity="0.55" stroke="#3a3a3a" stroke-width="2"/>
    <circle cx="1310" cy="350" r="142" fill="none" stroke="#5a5a5a" stroke-width="1" opacity="0.35"/>

    <rect x="1010" y="312" width="160" height="132" rx="16" fill="#0b0b0c" opacity="0.48" stroke="#3a3a3a" stroke-width="1"/>
  </g>

  <g opacity="0.88">
    <rect x="688" y="170" width="224" height="160" rx="16" fill="#0b0b0c" opacity="0.50" stroke="#3a3a3a" stroke-width="1"/>

    <circle cx="744" cy="238" r="26" fill="#0a0a0b" opacity="0.8" stroke="#3a3a3a" stroke-width="1"/>
    <circle cx="856" cy="238" r="26" fill="#0a0a0b" opacity="0.8" stroke="#3a3a3a" stroke-width="1"/>
    <circle cx="744" cy="302" r="26" fill="#0a0a0b" opacity="0.8" stroke="#3a3a3a" stroke-width="1"/>
    <circle cx="856" cy="302" r="26" fill="#0a0a0b" opacity="0.8" stroke="#3a3a3a" stroke-width="1"/>

    <rect x="688" y="346" width="224" height="132" rx="16" fill="#0b0b0c" opacity="0.50" stroke="#3a3a3a" stroke-width="1"/>

    <rect x="730" y="384" width="18" height="84" rx="9" fill="#050506" opacity="0.9" stroke="#3a3a3a" stroke-width="1"/>
    <rect x="852" y="384" width="18" height="84" rx="9" fill="#050506" opacity="0.9" stroke="#3a3a3a" stroke-width="1"/>

    <rect x="552" y="534" width="496" height="34" rx="16" fill="#0b0b0c" opacity="0.55" stroke="#3a3a3a" stroke-width="1"/>
  </g>

  <g opacity="0.95">
    <circle cx="52" cy="52" r="12" fill="url(#gScrew)"/>
    <circle cx="1548" cy="52" r="12" fill="url(#gScrew)"/>
    <circle cx="52" cy="548" r="12" fill="url(#gScrew)"/>
    <circle cx="1548" cy="548" r="12" fill="url(#gScrew)"/>
  </g>

  <g opacity="0.65">
    <circle cx="92" cy="98" r="8" fill="url(#gScrew)"/><circle cx="620" cy="98" r="8" fill="url(#gScrew)"/>
    <circle cx="92" cy="502" r="8" fill="url(#gScrew)"/><circle cx="620" cy="502" r="8" fill="url(#gScrew)"/>
    <circle cx="684" cy="98" r="8" fill="url(#gScrew)"/><circle cx="916" cy="98" r="8" fill="url(#gScrew)"/>
    <circle cx="684" cy="502" r="8" fill="url(#gScrew)"/><circle cx="916" cy="502" r="8" fill="url(#gScrew)"/>
    <circle cx="980" cy="98" r="8" fill="url(#gScrew)"/><circle cx="1508" cy="98" r="8" fill="url(#gScrew)"/>
    <circle cx="980" cy="502" r="8" fill="url(#gScrew)"/><circle cx="1508" cy="502" r="8" fill="url(#gScrew)"/>
  </g>
</svg>
