<?xml version="1.0" encoding="UTF-8"?>
<!-- gunshot-16.svg -->
<svg viewBox="0 0 16 16" xmlns="http://www.w3.org/2000/svg" role="img" aria-label="Gunshot (burst) icon"
     stroke-linecap="round" stroke-linejoin="round">
  <g id="gunshot-icon">
    <!-- highlight -->
    <g transform="translate(-0.5,-0.5)" opacity="0.06" stroke="#ffffff" fill="none" stroke-width="1.5">
      <path d="M8 1.8 L9.3 4.7 L12.4 3.9 L10.9 6.7 L14.0 8.0 L10.9 9.3
               L12.4 12.1 L9.3 11.3 L8 14.2 L6.7 11.3 L3.6 12.1 L5.1 9.3
               L2.0 8.0 L5.1 6.7 L3.6 3.9 L6.7 4.7 Z"/>
      <path d="M8 5.9 L8.6 7.2 L10.0 7.0 L9.2 8.1 L10.0 9.2 L8.6 9.0
               L8 10.3 L7.4 9.0 L6.0 9.2 L6.8 8.1 L6.0 7.0 L7.4 7.2 Z"/>
      <path d="M1.6 5.2 L2.6 5.8"/>
      <path d="M13.4 4.6 L14.4 3.8"/>
      <path d="M13.6 11.4 L14.6 12.0"/>
      <path d="M1.4 10.8 L2.4 10.2"/>
    </g>

    <!-- shadow -->
    <g transform="translate(0.6,0.6)" opacity="0.42" stroke="#000000" fill="none" stroke-width="1.5">
      <path d="M8 1.8 L9.3 4.7 L12.4 3.9 L10.9 6.7 L14.0 8.0 L10.9 9.3
               L12.4 12.1 L9.3 11.3 L8 14.2 L6.7 11.3 L3.6 12.1 L5.1 9.3
               L2.0 8.0 L5.1 6.7 L3.6 3.9 L6.7 4.7 Z"/>
      <path d="M8 5.9 L8.6 7.2 L10.0 7.0 L9.2 8.1 L10.0 9.2 L8.6 9.0
               L8 10.3 L7.4 9.0 L6.0 9.2 L6.8 8.1 L6.0 7.0 L7.4 7.2 Z"/>
      <path d="M1.6 5.2 L2.6 5.8"/>
      <path d="M13.4 4.6 L14.4 3.8"/>
      <path d="M13.6 11.4 L14.6 12.0"/>
      <path d="M1.4 10.8 L2.4 10.2"/>
    </g>

    <!-- face -->
    <g opacity="0.20" stroke="#9ca3af" fill="none" stroke-width="1.5">
      <path d="M8 1.8 L9.3 4.7 L12.4 3.9 L10.9 6.7 L14.0 8.0 L10.9 9.3
               L12.4 12.1 L9.3 11.3 L8 14.2 L6.7 11.3 L3.6 12.1 L5.1 9.3
               L2.0 8.0 L5.1 6.7 L3.6 3.9 L6.7 4.7 Z"/>
      <path d="M8 5.9 L8.6 7.2 L10.0 7.0 L9.2 8.1 L10.0 9.2 L8.6 9.0
               L8 10.3 L7.4 9.0 L6.0 9.2 L6.8 8.1 L6.0 7.0 L7.4 7.2 Z"/>
      <path d="M1.6 5.2 L2.6 5.8"/>
      <path d="M13.4 4.6 L14.4 3.8"/>
      <path d="M13.6 11.4 L14.6 12.0"/>
      <path d="M1.4 10.8 L2.4 10.2"/>
    </g>
  </g>
</svg>
