<?xml version="1.0" encoding="UTF-8"?>
<!-- airhorn-16.svg -->
<svg viewBox="0 0 16 16" xmlns="http://www.w3.org/2000/svg" role="img" aria-label="Airhorn icon"
     stroke-linecap="round" stroke-linejoin="round">
  <g id="airhorn-icon">
    <!-- highlight -->
    <g transform="translate(-0.5,-0.5)" opacity="0.06" stroke="#ffffff" fill="none" stroke-width="1.5">
      <rect x="3.2" y="8.9" width="3.0" height="5.2" rx="1.2"/>
      <path d="M3.8 8.8V7.6c0-.7.5-1.2 1.2-1.2h.6c.7 0 1.2.5 1.2 1.2v1.2"/>
      <path d="M2.2 7.0 L9.6 4.5 C10.5 4.2 11.2 4.8 11.2 5.7 V10.3
               C11.2 11.2 10.5 11.8 9.6 11.5 L2.2 9.0 Z"/>
      <path d="M11.2 6.0h1.2c.6 0 1.1.5 1.1 1.1v1.8c0 .6-.5 1.1-1.1 1.1h-1.2"/>
      <circle cx="5.4" cy="7.3" r="0.7"/>
      <path d="M13.7 6.2 C14.7 7.2 14.7 8.8 13.7 9.8"/>
      <path d="M14.9 5.0 C16.6 6.7 16.6 9.3 14.9 11.0"/>
    </g>

    <!-- shadow -->
    <g transform="translate(0.6,0.6)" opacity="0.42" stroke="#000000" fill="none" stroke-width="1.5">
      <rect x="3.2" y="8.9" width="3.0" height="5.2" rx="1.2"/>
      <path d="M3.8 8.8V7.6c0-.7.5-1.2 1.2-1.2h.6c.7 0 1.2.5 1.2 1.2v1.2"/>
      <path d="M2.2 7.0 L9.6 4.5 C10.5 4.2 11.2 4.8 11.2 5.7 V10.3
               C11.2 11.2 10.5 11.8 9.6 11.5 L2.2 9.0 Z"/>
      <path d="M11.2 6.0h1.2c.6 0 1.1.5 1.1 1.1v1.8c0 .6-.5 1.1-1.1 1.1h-1.2"/>
      <circle cx="5.4" cy="7.3" r="0.7"/>
      <path d="M13.7 6.2 C14.7 7.2 14.7 8.8 13.7 9.8"/>
      <path d="M14.9 5.0 C16.6 6.7 16.6 9.3 14.9 11.0"/>
    </g>

    <!-- face -->
    <g opacity="0.20" stroke="#9ca3af" fill="none" stroke-width="1.5">
      <rect x="3.2" y="8.9" width="3.0" height="5.2" rx="1.2"/>
      <path d="M3.8 8.8V7.6c0-.7.5-1.2 1.2-1.2h.6c.7 0 1.2.5 1.2 1.2v1.2"/>
      <path d="M2.2 7.0 L9.6 4.5 C10.5 4.2 11.2 4.8 11.2 5.7 V10.3
               C11.2 11.2 10.5 11.8 9.6 11.5 L2.2 9.0 Z"/>
      <path d="M11.2 6.0h1.2c.6 0 1.1.5 1.1 1.1v1.8c0 .6-.5 1.1-1.1 1.1h-1.2"/>
      <circle cx="5.4" cy="7.3" r="0.7"/>
      <path d="M13.7 6.2 C14.7 7.2 14.7 8.8 13.7 9.8"/>
      <path d="M14.9 5.0 C16.6 6.7 16.6 9.3 14.9 11.0"/>
    </g>
  </g>
</svg>
