<?xml version="1.0" encoding="UTF-8"?>
<!-- performance-pad-button.svg (template, centered char + icon slot) -->
<svg viewBox="0 0 80 80" xmlns="http://www.w3.org/2000/svg" role="img" aria-label="DJ performance pad button"
     style="color: #FF9F1C">
  <defs>
    <!-- Body gradients (rubber/plastic) -->
    <linearGradient id="gBody" x1="0" y1="0" x2="0" y2="1">
      <stop offset="0%" stop-color="#262628"/>
      <stop offset="55%" stop-color="#121214"/>
      <stop offset="100%" stop-color="#0a0a0b"/>
    </linearGradient>

    <radialGradient id="gTop" cx="50%" cy="35%" r="70%">
      <stop offset="0%" stop-color="#1f1f22"/>
      <stop offset="50%" stop-color="#111114"/>
      <stop offset="100%" stop-color="#070708"/>
    </radialGradient>

    <!-- Soft highlight sweep -->
    <linearGradient id="gSheen" x1="0" y1="0" x2="1" y2="1">
      <stop offset="0%" stop-color="#ffffff" stop-opacity="0.14"/>
      <stop offset="35%" stop-color="#ffffff" stop-opacity="0.04"/>
      <stop offset="100%" stop-color="#ffffff" stop-opacity="0"/>
    </linearGradient>

    <!-- Rubber micro-texture -->
    <filter id="fTexture" x="-20%" y="-20%" width="140%" height="140%">
      <feTurbulence type="fractalNoise" baseFrequency="0.9" numOctaves="2" seed="8" result="n"/>
      <feColorMatrix in="n" type="matrix"
        values="0 0 0 0 0
                0 0 0 0 0
                0 0 0 0 0
                0 0 0 0.10 0" result="a"/>
      <feComposite in="a" in2="SourceGraphic" operator="over"/>
    </filter>

    <!-- Under-shadow for the whole pad -->
    <filter id="fDrop" x="-25%" y="-25%" width="150%" height="160%">
      <feDropShadow dx="0" dy="6" stdDeviation="6" flood-color="#000000" flood-opacity="0.65"/>
    </filter>

    <!-- Inner concave shadow -->
    <filter id="fInner" x="-30%" y="-30%" width="160%" height="160%">
      <feOffset dx="0" dy="2" in="SourceAlpha" result="off"/>
      <feGaussianBlur in="off" stdDeviation="3" result="blur"/>
      <feComposite in="blur" in2="SourceAlpha" operator="out" result="innerShadow"/>
      <feColorMatrix in="innerShadow" type="matrix"
        values="0 0 0 0 0
                0 0 0 0 0
                0 0 0 0 0
                0 0 0 0.55 0" result="innerShadowAlpha"/>
      <feComposite in="innerShadowAlpha" in2="SourceGraphic" operator="over"/>
    </filter>

    <!-- LED bloom (embedded, not neon) -->
    <filter id="fLED" x="-60%" y="-60%" width="220%" height="220%">
      <feDropShadow dx="0" dy="0" stdDeviation="1.2" flood-color="currentColor" flood-opacity="0.55"/>
      <feDropShadow dx="0" dy="0" stdDeviation="3.2" flood-color="currentColor" flood-opacity="0.22"/>
    </filter>

    <style>
      /* main LED stroke pulls from svg 'color' */
      .led { stroke: currentColor; }

      /* etched key character */
      .padCharBase {
        font-family: ui-sans-serif, system-ui, -apple-system, Segoe UI, Roboto, Helvetica, Arial;
        font-weight: 800;
        font-size: 26px;
        letter-spacing: 0.02em;
      }
    </style>
  </defs>

  <!-- Outer pad body -->
  <g filter="url(#fDrop)">
    <rect id="pad-body" x="6" y="6" width="68" height="68" rx="16" fill="url(#gBody)" stroke="#2f2f33" stroke-width="1"/>
  </g>

  <!-- Top concave surface -->
  <g filter="url(#fTexture)">
    <rect id="pad-top" x="11" y="11" width="58" height="58" rx="14" fill="url(#gTop)" filter="url(#fInner)"/>
  </g>

  <!-- Subtle bevel ring (tactile edge) -->
  <rect id="bevel-ring" x="9" y="9" width="62" height="62" rx="15"
        fill="none" stroke="#ffffff" stroke-opacity="0.05" stroke-width="2"/>

  <!-- Highlight sheen -->
  <path id="sheen" d="M18 18C32 12 50 12 62 22C68 27 70 34 68 40C54 26 34 24 18 28Z"
        fill="url(#gSheen)" opacity="0.9"/>

  <!-- Etched key character (configurable) -->
  <g id="pad-char" aria-hidden="true" pointer-events="none" transform="translate(40 40)">
    <text x="0" y="0" text-anchor="middle" dominant-baseline="central"
          class="padCharBase" fill="#ffffff" opacity="0.07" transform="translate(-0.7,-0.7)">G</text>
    <text x="0" y="0" text-anchor="middle" dominant-baseline="central"
          class="padCharBase" fill="#000000" opacity="0.55" transform="translate(0.9,0.9)">G</text>
    <text x="0" y="0" text-anchor="middle" dominant-baseline="central"
          class="padCharBase" fill="#9ca3af" opacity="0.22">G</text>
  </g>

  <!-- Small etched icon slot (default: horn). Keeps within LED border bounds. -->
  <!-- Move icon by changing translate(54 22). Size is ~12x12 (16x16 scaled to 0.75). -->
  <g id="pad-icon" aria-hidden="true" pointer-events="none"
     transform="translate(54 22) scale(0.75) translate(-8 -8)"
     stroke-linecap="round" stroke-linejoin="round">
    <!-- highlight -->
    <g transform="translate(-0.5,-0.5)" opacity="0.06" stroke="#ffffff" fill="none" stroke-width="1.6">
      <path d="M2.4 7.0 L9.8 4.4 C10.6 4.1 11.2 4.6 11.2 5.4 V10.6 C11.2 11.4 10.6 11.9 9.8 11.6 L2.4 9.0 Z"/>
      <path d="M4.1 9.2 L5.1 13.6" />
      <path d="M12.6 6.1 C13.6 7.1 13.6 8.9 12.6 9.9"/>
      <path d="M13.9 5.0 C15.5 6.6 15.5 9.4 13.9 11.0"/>
    </g>
    <!-- shadow -->
    <g transform="translate(0.6,0.6)" opacity="0.42" stroke="#000000" fill="none" stroke-width="1.6">
      <path d="M2.4 7.0 L9.8 4.4 C10.6 4.1 11.2 4.6 11.2 5.4 V10.6 C11.2 11.4 10.6 11.9 9.8 11.6 L2.4 9.0 Z"/>
      <path d="M4.1 9.2 L5.1 13.6" />
      <path d="M12.6 6.1 C13.6 7.1 13.6 8.9 12.6 9.9"/>
      <path d="M13.9 5.0 C15.5 6.6 15.5 9.4 13.9 11.0"/>
    </g>
    <!-- face -->
    <g opacity="0.20" stroke="#9ca3af" fill="none" stroke-width="1.6">
      <path d="M2.4 7.0 L9.8 4.4 C10.6 4.1 11.2 4.6 11.2 5.4 V10.6 C11.2 11.4 10.6 11.9 9.8 11.6 L2.4 9.0 Z"/>
      <path d="M4.1 9.2 L5.1 13.6" />
      <path d="M12.6 6.1 C13.6 7.1 13.6 8.9 12.6 9.9"/>
      <path d="M13.9 5.0 C15.5 6.6 15.5 9.4 13.9 11.0"/>
    </g>
  </g>

  <!-- LED border (two-layer: bloom + crisp) -->
  <g id="led-border" filter="url(#fLED)">
    <rect x="14.5" y="14.5" width="51" height="51" rx="12"
          fill="none" class="led" stroke-width="5" stroke-opacity="0.18"/>
    <rect x="14.5" y="14.5" width="51" height="51" rx="12"
          fill="none" class="led" stroke-width="2.4" stroke-opacity="0.85"/>
  </g>

  <!-- Tiny top-edge catch light (real hardware feel) -->
  <path id="edge-highlight" d="M14 18c2-4 8-7 13-7h26c6 0 12 3 14 7"
        fill="none" stroke="#ffffff" stroke-opacity="0.05" stroke-width="3" stroke-linecap="round"/>

  <!-- Bottom occlusion shadow to imply thickness -->
  <path id="bottom-occlusion" d="M12 60c10 8 46 8 56 0" fill="none"
        stroke="#000000" stroke-opacity="0.35" stroke-width="6" stroke-linecap="round"/>
</svg>
